<?xml version="1.0" encoding="utf-8"?>
<!-- Designed by Vexels.com - 2016 All Rights Reserved - https://vexels.com/terms-and-conditions/  -->

<svg version="1.1" id="Capa_1" xmlns="http://www.w3.org/2000/svg" xmlns:xlink="http://www.w3.org/1999/xlink" x="0px" y="0px"
	 width="1200px" height="1200px" viewBox="0 0 1200 1200" enable-background="new 0 0 1200 1200" xml:space="preserve">
<g>
	<path fill="#441104" d="M281.619,639.73c0,0-24.912-73.433-24.912-110.131c0-36.725-2.611-72.117-13.117-107.548
		c-10.493-35.391-51.122-98.333-53.759-166.544c-2.614-68.182,2.641-131.097,82.605-161.264c0,0,45.907,1.304,18.369,26.205
		c0,0-85.23,48.52-53.747,118.021c0,0,38.016,110.158,52.454,135.085c14.41,24.902,15.729,64.238,22.303,91.763
		c6.528,27.554,6.528,94.442,24.886,112.811c18.357,18.344,31.498,22.273,56.4,18.344c24.927-3.934,58.997-15.729,112.783-22.276
		c53.759-6.572,107.519-23.62,152.093-23.62c44.605,0,69.518-5.251,93.125-7.881c23.596-2.625,70.795-11.811,89.164-11.811
		s52.467-39.322,76.061-45.881c0,0,10.504-34.083,3.932-36.738c0,0,11.799-6.529,2.617-18.327c0,0-31.463-78.699-15.719-91.801
		c0,0,1.309-15.729,26.221,6.558c24.912,22.302,6.559,1.307,6.559,1.307l43.244,31.472c0,0,51.305-9.412,72.504-6.774
		c2.533,0.335,4.662,0.85,6.209,1.535c14.41,6.56,28.846-57.704,44.59-61.638c0,0,19.66-13.104,34.08,26.221
		c0,0,9.188,60.334,3.934,73.433c0,0,1.305,11.799,3.945,19.688c2.615,7.85,6.561,85.218-31.471,112.757
		c-38.047,27.554-13.119,48.522-11.811,74.742c1.318,26.246-27.555,100.985-38.031,119.328
		c-10.504,18.369-24.914,28.877-26.236,55.092c-1.305,26.221,2.629,45.909,10.506,72.112c7.867,26.238,22.273,51.147,24.898,65.572
		c2.625,14.436,6.559,70.792,9.184,85.242c2.627,14.41,22.301,34.087,20.996,56.386c-1.32,22.306-34.098,32.805-45.924-3.933
		c0,0-28.83-23.593-22.275-41.959c6.557-18.371-7.879-31.481-7.879-49.83c0-18.366-38.014-57.718-48.49-66.903
		c0,0-22.33-28.846-20.996-39.308c0,0,10.49,85.231,14.41,104.894c3.943,19.66,1.318,35.393,9.197,51.147
		c7.865,15.727,18.342,39.349,32.766,41.959c14.438,2.628,20.994-15.727,27.553,5.241c6.561,20.997,11.785,11.811,6.561,20.997
		c-5.252,9.153-24.93,10.459-34.113,9.153c0,0-56.373,13.131-62.932-14.421c0,0-18.369-27.529-28.857-44.561
		c-10.477-17.063-13.104-26.247-18.342-40.671c-5.254-14.421-39.365-110.144-40.668-131.111
		c-1.295-20.994-24.898-52.493-45.883-47.231c0,0-140.32,45.897-253.08,35.42c0,0-55.092,82.606-104.918,114.077
		c0,0-34.099,10.477-10.504,27.555c0,0,32.806,27.509,59.014,39.319c26.231,11.797,31.482-5.25,45.896-1.305
		c14.437,3.944,31.483,22.287,20.981,34.112c-10.466,11.768-69.49,15.712-87.857,2.588c0,0-121.928-53.732-132.431-61.61
		c-10.491-7.878-18.368-18.371-3.933-39.336c14.436-20.982,17.051-52.438,17.051-52.438s-97.041,34.066-171.796,35.363
		c0,0-69.49-26.206-82.605,6.572c0,0-17.049,65.583-3.933,78.699c0,0,34.072,38.014,17.051,44.558c0,0-13.118,7.884-26.219,1.322
		c0,0-30.18,6.556-35.405-9.183c0,0-3.959-10.477-10.504-19.663c-6.543-9.168-6.543-19.674-5.251-38.017
		c1.304-18.366,14.421-89.188,5.251-110.185c-9.185-20.953-18.357-27.525,28.831-41.949c47.228-14.422,74.755-28.846,100.987-51.162
		c26.235-22.273,32.779-3.916,40.656-45.881c7.881-41.961,14.422-65.539,30.18-85.229C273.77,668.589,281.619,639.73,281.619,639.73
		z"/>
</g>
</svg>
