<?xml version="1.0" standalone="no"?>
<!DOCTYPE svg PUBLIC "-//W3C//DTD SVG 20010904//EN" "http://www.w3.org/TR/2001/REC-SVG-20010904/DTD/svg10.dtd">
<svg xmlns="http://www.w3.org/2000/svg" version="1.0" width="1808.000000pt" height="1920.000000pt" viewBox="0 0 1808.000000 1920.000000" preserveAspectRatio="xMidYMid meet">
<metadata>
Silhouette image created by Creazilla.com with potrace 1.16, written by Peter Selinger 2001-2019
</metadata>
<g transform="translate(0.000000,1920.000000) scale(0.100000,-0.100000)" fill="#FD8C25">
<path d="M15429 19083 c-64 -65 -618 -626 -1230 -1248 -612 -621 -1527 -1547 -2033 -2058 -819 -824 -924 -927 -946 -922 -14 3 -43 8 -65 10 -22 3 -83 14 -135 25 -173 35 -334 61 -435 70 -55 5 -163 16 -240 24 -408 44 -965 46 -1370 6 -115 -12 -229 -23 -253 -25 -24 -1 -46 -5 -49 -8 -3 -3 -11 -3 -18 -1 -15 6 -140 -14 -363 -57 -84 -16 -172 -32 -195 -35 -42 -5 -314 -71 -327 -79 -4 -2 -27 -7 -51 -10 -24 -3 -55 -9 -69 -14 -38 -15 -259 -82 -281 -86 -29 -6 -355 -120 -429 -150 -35 -15 -72 -28 -81 -30 -9 -2 -36 -12 -60 -23 -24 -11 -93 -41 -152 -66 -110 -47 -469 -222 -612 -299 -109 -59 -359 -208 -366 -218 -3 -5 -67 22 -142 60 -75 38 -137 67 -137 65 0 -3 -44 17 -98 45 -127 66 -481 240 -488 239 -3 0 -80 37 -172 82 -314 154 -812 396 -967 470 -66 32 -199 96 -295 142 -96 47 -251 122 -345 167 -248 120 -503 244 -640 311 -66 32 -196 95 -290 140 -93 45 -228 110 -300 145 -71 35 -215 105 -320 155 -104 51 -235 114 -290 141 -110 54 -435 211 -700 339 -94 45 -207 100 -253 122 -98 47 -132 46 -189 -6 -31 -28 -37 -40 -41 -89 -5 -65 11 -124 65 -232 19 -38 36 -78 38 -87 2 -9 19 -48 38 -85 19 -38 38 -80 42 -93 4 -14 28 -68 52 -119 25 -52 46 -102 48 -110 2 -9 17 -43 33 -76 16 -33 51 -109 77 -170 26 -60 54 -119 61 -130 8 -11 14 -25 14 -33 0 -7 23 -61 51 -120 28 -59 52 -114 54 -122 2 -9 19 -49 39 -90 19 -41 65 -142 101 -225 97 -218 132 -297 186 -415 27 -58 49 -109 49 -113 0 -3 20 -49 45 -101 25 -53 45 -101 45 -109 0 -7 6 -21 14 -32 7 -11 44 -90 81 -175 37 -85 71 -159 74 -165 4 -5 16 -32 26 -60 10 -27 34 -81 52 -118 19 -37 36 -76 38 -86 2 -10 18 -47 35 -82 18 -34 38 -79 45 -98 8 -20 53 -121 100 -226 48 -104 93 -207 100 -227 8 -21 29 -68 48 -106 19 -37 38 -79 42 -92 4 -14 28 -67 52 -119 25 -52 46 -103 49 -114 2 -10 7 -24 12 -31 5 -6 40 -81 77 -166 37 -85 74 -164 81 -175 8 -11 14 -25 14 -32 0 -8 20 -55 44 -106 24 -50 47 -103 51 -117 4 -13 23 -55 42 -92 19 -38 40 -85 48 -106 7 -20 52 -122 100 -227 47 -104 92 -206 100 -226 7 -19 27 -64 45 -98 17 -35 33 -72 35 -81 2 -10 18 -47 35 -82 18 -34 43 -92 57 -128 14 -36 28 -69 33 -75 11 -15 110 -244 110 -256 0 -6 -7 -25 -15 -42 -8 -18 -23 -59 -34 -92 -11 -33 -34 -98 -51 -145 -18 -47 -33 -93 -35 -103 -2 -10 -23 -75 -46 -145 -23 -70 -43 -136 -45 -147 -1 -11 -3 -20 -4 -20 -1 0 -3 -9 -5 -20 -1 -11 -21 -87 -44 -170 -24 -82 -43 -159 -43 -170 0 -11 -11 -65 -24 -120 -31 -135 -73 -364 -72 -395 0 -14 -9 -90 -21 -170 -88 -623 -89 -1284 -1 -1900 11 -74 22 -162 25 -195 6 -66 32 -207 65 -355 12 -52 23 -111 26 -132 2 -20 15 -76 28 -125 13 -48 33 -128 46 -178 12 -49 43 -155 68 -235 26 -80 47 -154 49 -165 1 -11 23 -74 48 -140 26 -66 49 -131 51 -143 3 -13 23 -67 45 -119 23 -53 42 -100 44 -107 3 -18 15 -45 57 -136 22 -47 41 -92 43 -100 3 -15 213 -441 258 -525 12 -22 58 -103 103 -180 45 -77 92 -158 104 -180 12 -22 28 -47 35 -55 7 -8 50 -73 96 -145 45 -71 88 -136 95 -142 7 -7 46 -61 87 -120 81 -118 129 -180 253 -330 l80 -98 -37 -130 c-21 -71 -41 -150 -44 -174 -4 -25 -8 -48 -10 -51 -8 -13 -85 -301 -89 -333 -3 -18 -23 -99 -46 -182 -23 -82 -43 -164 -45 -180 -3 -17 -23 -98 -45 -180 -23 -83 -43 -161 -45 -175 -2 -14 -4 -25 -5 -25 -1 0 -3 -11 -5 -25 -2 -14 -22 -92 -44 -173 -23 -81 -43 -163 -45 -181 -3 -18 -23 -97 -46 -177 -22 -79 -43 -158 -45 -175 -3 -17 -25 -103 -51 -190 -46 -159 -62 -267 -42 -291 6 -7 7 -13 4 -13 -20 0 38 -59 74 -75 47 -21 76 -19 445 39 116 18 219 33 231 34 49 1 451 64 477 74 45 17 72 89 83 222 3 33 25 181 49 327 25 146 45 279 46 295 1 16 21 152 46 302 24 151 46 302 49 335 3 34 25 183 50 330 24 148 42 272 39 277 -3 5 -1 11 5 15 6 4 8 10 5 15 -3 5 15 132 39 282 25 150 48 296 51 323 2 28 7 75 11 105 8 74 -4 99 -85 183 -147 153 -379 436 -509 622 -159 227 -258 380 -336 520 -21 39 -47 82 -57 96 -29 43 -229 439 -252 499 -11 30 -26 64 -33 75 -13 21 -144 339 -149 365 -2 8 -4 15 -5 15 -1 0 -3 7 -5 15 -2 8 -22 64 -44 124 -23 61 -43 121 -46 135 -2 15 -18 69 -35 121 -35 108 -51 166 -55 195 -1 11 -18 81 -38 155 -38 147 -57 233 -62 283 -1 18 -14 97 -29 177 -34 197 -55 356 -60 470 -2 52 -10 198 -16 324 -12 224 -11 264 16 791 6 124 30 300 66 495 17 91 30 172 30 180 0 18 65 291 78 325 5 13 12 44 15 69 3 25 9 55 14 68 6 13 26 77 46 143 46 150 67 211 100 300 15 39 28 77 30 85 2 8 23 62 48 120 24 58 48 116 52 130 4 14 25 60 46 103 22 42 37 77 34 77 -6 0 224 451 240 470 7 8 29 47 50 85 21 39 58 102 83 140 25 39 67 105 94 148 26 43 75 115 108 160 33 45 95 130 137 188 338 462 949 1062 1388 1364 39 26 93 65 120 86 28 20 88 61 135 90 47 29 132 81 189 116 57 36 113 68 125 73 12 4 39 19 59 33 48 32 479 247 508 252 12 2 31 10 43 18 11 7 64 31 116 51 52 21 133 53 181 72 47 19 95 36 107 39 12 2 79 24 149 50 70 25 139 48 153 50 14 2 57 14 95 25 107 33 237 69 244 68 3 0 8 1 11 2 3 1 14 3 25 5 11 2 102 22 202 44 101 23 204 43 230 45 27 3 109 14 183 25 602 91 1211 91 1795 0 71 -11 155 -23 185 -25 30 -3 123 -21 205 -40 83 -19 191 -44 240 -55 50 -10 140 -35 200 -53 61 -19 122 -37 137 -40 15 -2 77 -23 138 -45 61 -23 121 -43 133 -45 12 -2 63 -21 112 -41 50 -21 113 -45 140 -55 28 -10 89 -36 138 -59 48 -22 91 -41 95 -41 7 0 164 -74 237 -112 22 -12 74 -38 115 -59 41 -21 80 -42 85 -47 6 -5 50 -30 99 -55 48 -26 102 -58 120 -72 18 -14 36 -25 40 -25 4 0 38 -20 76 -45 38 -24 82 -51 99 -59 16 -9 35 -21 43 -29 7 -7 74 -54 148 -105 75 -50 146 -101 158 -113 13 -11 62 -51 110 -87 435 -330 777 -676 1188 -1203 111 -143 382 -549 383 -576 1 -6 5 -13 10 -15 22 -8 353 -655 366 -716 2 -9 23 -60 45 -112 23 -52 44 -102 45 -110 2 -8 24 -69 48 -135 51 -137 135 -396 143 -440 2 -17 13 -59 24 -95 31 -106 70 -268 74 -308 3 -20 16 -93 30 -161 31 -149 54 -294 60 -376 3 -33 12 -125 20 -205 41 -389 41 -833 0 -1220 -8 -80 -17 -172 -20 -205 -5 -86 -22 -189 -56 -360 -17 -82 -32 -161 -34 -175 -1 -14 -3 -27 -4 -30 -1 -3 -2 -8 -1 -13 1 -9 -55 -226 -74 -287 -8 -25 -17 -61 -19 -80 -3 -19 -25 -96 -50 -170 -25 -74 -45 -135 -44 -135 3 0 -26 -85 -59 -170 -20 -49 -37 -101 -40 -115 -2 -13 -8 -29 -12 -35 -4 -5 -18 -37 -31 -70 -13 -33 -30 -70 -38 -82 -8 -13 -11 -23 -8 -23 3 0 -7 -27 -24 -60 -38 -74 -39 -124 -5 -174 14 -20 25 -39 25 -42 0 -4 172 -327 205 -384 8 -14 37 -68 65 -120 28 -52 75 -140 104 -195 30 -55 72 -134 93 -175 22 -41 70 -131 107 -200 38 -69 77 -143 88 -165 11 -22 69 -130 128 -240 128 -239 191 -356 241 -450 20 -38 65 -122 99 -185 34 -63 82 -153 107 -200 24 -47 54 -95 67 -108 35 -36 87 -38 209 -8 60 14 127 28 150 31 23 3 139 26 257 51 118 24 233 47 255 49 67 7 278 62 312 81 44 26 63 63 63 125 0 48 -6 61 -67 153 -37 56 -73 106 -79 111 -6 6 -48 69 -94 140 -45 72 -87 135 -94 140 -7 6 -50 69 -95 140 -46 72 -91 139 -101 150 -9 11 -51 74 -93 140 -42 66 -80 125 -86 131 -5 6 -46 69 -92 140 -45 71 -90 138 -99 149 -9 11 -54 79 -100 150 -46 72 -86 132 -90 135 -3 3 -44 64 -90 135 -46 72 -87 132 -91 135 -3 3 -46 66 -94 140 -48 74 -97 145 -108 158 -19 20 -20 26 -8 55 29 71 159 467 154 467 -3 0 0 7 7 15 7 8 10 15 7 15 -3 0 -2 12 3 28 57 193 80 276 85 313 3 24 13 69 20 99 12 46 35 141 61 258 2 13 7 44 9 69 3 25 16 111 30 191 65 389 80 608 80 1167 0 560 -15 780 -81 1170 -14 83 -27 168 -29 190 -2 22 -22 119 -45 215 -22 96 -43 190 -45 208 -5 35 -44 176 -76 276 -10 33 -17 61 -15 63 2 3 -18 68 -45 146 -27 78 -51 151 -53 163 -2 11 -23 68 -45 126 -23 59 -44 115 -46 126 -2 11 -15 45 -29 76 -14 31 -26 58 -26 60 0 3 -10 26 -22 53 -11 26 -22 53 -23 59 -12 55 -302 640 -352 711 -13 17 -23 34 -23 38 0 4 -22 45 -50 92 -27 47 -50 89 -50 93 0 5 -4 10 -8 12 -9 3 -74 103 -84 128 -3 8 -47 74 -97 145 -49 72 -112 161 -138 199 -26 39 -64 89 -83 112 -19 23 -71 88 -115 145 -44 57 -113 143 -154 192 l-73 88 50 612 c28 337 51 635 52 662 0 28 18 259 40 515 23 256 45 544 50 640 5 96 28 389 50 650 23 261 43 527 46 590 3 63 23 324 45 580 22 256 42 517 45 580 2 63 25 356 50 650 24 294 45 560 45 590 0 30 9 163 20 295 11 132 17 250 14 263 -9 36 -48 90 -73 102 -13 5 -48 10 -79 10 l-56 0 -118 -117z"/>
</g>
</svg>
