<?xml version="1.0" encoding="UTF-8"?> <svg xmlns="http://www.w3.org/2000/svg" xmlns:xlink="http://www.w3.org/1999/xlink" xmlns:svgjs="http://svgjs.com/svgjs" version="1.1" width="512" height="512" x="0" y="0" viewBox="0 0 64 64" style="enable-background:new 0 0 512 512" xml:space="preserve"><g><g xmlns="http://www.w3.org/2000/svg"><path d="m40 36c.553 0 1-.447 1-1v-1.612l1.684.561c.529.176 1.091-.108 1.265-.632.175-.524-.108-1.091-.632-1.265l-3-1c-.305-.105-.641-.051-.901.137-.262.188-.416.49-.416.811v3c0 .553.447 1 1 1z" fill="#29417c" data-original="#000000" style=""></path><path d="m60.378 44.217c2.924-7.982-.466-14.35-3.226-19.511-3.091-5.775-4.637-9.225-.483-12.963.41-.369.443-1.002.074-1.412-.369-.411-1.002-.444-1.412-.074-5.521 4.969-2.812 10.032.057 15.393 2.767 5.172 5.878 11.022 2.902 18.423-2.053.295-3.704 1.825-4.158 3.823l-.3-.45c-.073-.109-.168-.204-.277-.277l-7.299-4.866 1.061-.354c.251-.083.459-.264.578-.501.043-.087 1.031-2.097 1.102-5.108l2.803-3.74c.228-.303.264-.709.094-1.048-.169-.338-.515-.552-.894-.552 0 0-.001 0-.002 0l-3.525.006c-2.575-2.781-7.101-3.006-8.473-3.006-3.298 0-5.918 2.319-7.108 3.592-1.567-1.22-5.329-3.592-10.892-3.592-6.366 0-10.331 1.6-11.248 2.012-.421.018-1.523-.012-2.423-.499-.894-.485-1.329-1.307-1.329-2.513 0-10.47-3.332-11-4-11-.498 0-.92.366-.99.858-.041.289-1.01 7.118-1.01 11.142 0 5.701 4.314 8.176 7.128 8.849l.845 5.071c-.276.839-.973 3.065-.973 4.08 0 4.449 4.221 7.665 4.4 7.8.173.13.383.2.6.2h8c.008.001.016 0 .019 0 .553 0 1-.447 1-1 0-.188-.052-.364-.142-.515-.308-.814-1.5-3.485-3.877-3.485h-1.382l-.276-.553 2.59-1.295c.912.593 1.743 1.076 2.567 1.478 1.118 3.042 3.781 5.08 3.899 5.169.173.131.385.201.602.201h6c.321 0 .623-.154.811-.415s.239-.597.137-.901c-.092-.276-.752-2.12-2.137-3.089 2.2-.587 4.108-1.678 5.088-2.313 1.319 1.195 4.416 3.718 7.101 3.718 1.236 0 1.907-.336 2.447-.605.458-.23.789-.395 1.553-.395.525 0 1.581.732 2.43 1.321 1.244.864 2.419 1.679 3.57 1.679 1.513 0 2.554-.479 3.143-.858.917 1.124 2.296 1.858 3.857 1.858 2.757 0 5-2.243 5-5 0-2.275-1.538-4.18-3.622-4.783zm-35.022 7.783c-.431-.369-1.343-1.225-2.109-2.376 1.012.233 2.128.349 3.428.366.244.625.716 1.01 1.325 1.01.539 0 1.019.468 1.384 1zm26.644-1c-.525 0-1.581-.732-2.43-1.321-1.244-.864-2.419-1.679-3.57-1.679-1.236 0-1.907.336-2.447.605-.458.23-.789.395-1.553.395-2.115 0-5.26-2.677-6.293-3.707-.353-.352-.909-.39-1.307-.094-.037.028-3.791 2.801-7.4 2.801-2.224 0-3.752-.323-5.222-.973-.008-.004-.017-.006-.025-.011-1.021-.454-2.017-1.062-3.198-1.849-.298-.198-.68-.223-1.002-.062l-4 2c-.494.247-.694.848-.447 1.342l1 2c.169.339.515.553.894.553h2c.539 0 1.019.468 1.384 1h-6.028c-.812-.692-3.356-3.094-3.356-6 0-.598.554-2.512.947-3.681.053-.155.066-.322.039-.483l-1-6c-.071-.431-.413-.765-.845-.826-.25-.035-6.141-.947-6.141-7.01 0-2.647.456-6.701.749-9.034.583 1.087 1.251 3.353 1.251 8.034 0 2.467 1.293 3.684 2.377 4.272 1.728.935 3.717.724 3.717.724.121-.012.245-.046.353-.101.038-.02 3.866-1.895 10.553-1.895 6.468 0 10.258 3.672 10.293 3.707.205.205.504.307.776.29.289-.021.556-.165.729-.396.028-.036 2.762-3.601 6.202-3.601 2.484 0 5.689.69 7.232 2.63.189.238.478.377.782.377h.002l1.98-.003-1.796 2.396c-.13.173-.2.383-.2.6 0 2.004-.488 3.532-.743 4.193l-2.173.725c-1.906-1.005-4.502-2.731-4.529-2.75-.462-.307-1.081-.183-1.387.277-.307.46-.183 1.08.277 1.387.124.082 13.834 8.889 13.834 8.889l1.319 1.979c-.377.158-.91.3-1.598.3zm7 1c-1.654 0-3-1.346-3-3s1.346-3 3-3 3 1.346 3 3-1.346 3-3 3z" fill="#29417c" data-original="#000000" style=""></path></g></g></svg> 